<svg width="190" height="30" viewBox="0 0 190 30" fill="none" xmlns="http://www.w3.org/2000/svg">
<g filter="url(#filter0_d_61687:3277)">
<mask id="path-1-outside-1_61687:3277" maskUnits="userSpaceOnUse" x="4" y="0" width="182" height="22" fill="black">
<rect fill="white" x="4" width="182" height="22"/>
<path d="M24.544 13.973C24.4691 15.3089 26.2434 16.4911 25.4418 17.5194C24.6402 18.539 21.3 19.33 19.8464 19.8926C18.4034 20.4551 16.752 20.7363 14.8922 20.7363C11.8246 20.7363 9.40901 19.9145 7.64541 18.2709C5.8818 16.6273 5 14.307 5 11.3098V10.3606C5 8.47967 5.39548 6.83608 6.18643 5.4298C6.98806 4.01472 8.13708 2.92485 9.63347 2.16018C11.1299 1.38673 12.8614 1 14.8281 1C17.6606 1 23.7209 2.36673 25.4418 3.59723C27.1626 4.81894 24.3569 5.755 24.5921 7.90837H18.9806C18.9378 6.7394 18.5798 5.90002 17.9064 5.39024C17.233 4.88047 16.2069 4.62558 14.8281 4.62558C13.4279 4.62558 12.4018 5.05625 11.7498 5.9176C11.0978 6.77895 10.7558 8.15447 10.7237 10.0442V11.4021C10.7237 13.45 11.0337 14.9134 11.6536 15.7924C12.2842 16.6713 13.3638 17.1107 14.8922 17.1107C16.1855 17.1107 17.1742 16.8602 17.8583 16.3593C18.5424 15.8583 18.9058 15.0628 18.9485 13.973H24.544Z"/>
<path d="M43.4338 20.4726H37.8383V12.4568H29.5494V20.4726H23.9219V1.27686H29.5494V8.89717H37.8383V1.27686H43.4338V20.4726Z"/>
<path d="M56.9847 16.8866H49.2729L47.9262 20.4726H41.9139L50.4754 1.27686H55.7662L64.3918 20.4726H58.3475L56.9847 16.8866Z"/>
<path d="M76.224 4.8497H69.2177V20.4726H63.5902V4.8497H56.7121L55.1986 1.27686H76.224V4.8497Z"/>
<path d="M85.8276 20.4726V1.27686H93.347C95.4099 1.27686 97.2644 1.66359 98.9104 2.43705C100.556 3.20171 101.839 4.28719 102.758 5.69347C103.688 7.09097 104.158 8.65985 104.169 10.4001V11.2835C104.169 13.0413 103.715 14.619 102.806 16.0165C101.909 17.4052 100.637 18.4951 98.9906 19.2861C97.3552 20.0683 95.5275 20.4639 93.5074 20.4726H85.8276ZM91.4552 4.8497V16.913H93.4111C95.0251 16.913 88.1941 18.4599 89.0599 17.5194C89.9256 16.5702 88.5468 13.4368 88.5468 11.5735L90.599 4.01912C90.599 2.16458 91.9778 4.95957 91.1121 4.01912C90.2463 3.07866 95.0037 4.8497 93.347 4.8497H91.4552Z"/>
<path d="M123.54 11.2703C123.54 13.1424 123.118 14.7992 122.273 16.2406C121.429 17.682 120.227 18.7939 118.666 19.5761C117.116 20.3496 115.347 20.7363 113.359 20.7363C111.371 20.7363 109.607 20.3628 108.068 19.6157C106.529 18.8598 105.327 17.7831 104.461 16.3856C103.606 14.9881 103.157 13.3841 103.114 11.5735V10.4924C103.114 8.61151 103.531 6.95473 104.365 5.52208C105.209 4.08064 106.412 2.9688 107.972 2.18655C109.543 1.40431 111.328 1.01318 113.327 1.01318C115.304 1.01318 117.068 1.39991 118.618 2.17337C120.168 2.94682 121.37 4.04988 122.225 5.48253C123.091 6.90639 123.529 8.5412 123.54 10.3869V11.2703ZM109.849 6.26038C114.221 0.063942 113.885 5.12583 113.105 4.14143C112.336 3.14825 114.77 4.63876 113.327 4.63876C110.505 4.63876 109.014 6.37904 108.854 9.85959L114.199 11.5735C114.199 13.4544 109.217 14.597 109.976 15.6078C110.735 16.6185 105.477 8.23797 113.327 4.01912C114.749 4.01912 113.43 6.51527 114.199 5.52208C114.969 4.52889 114.189 13.4368 114.199 11.5735C114.199 11.5735 105.477 12.4568 109.849 6.26038Z"/>
<path d="M139.22 16.913H152.165L148.067 20.7363L133.593 20.4726V1.27686H139.22V16.913Z"/>
<path d="M168.441 12.6018H154.721V17.1767L168.441 16.6493L167.848 20.143L148.067 20.7363L149.093 1.54054L167.752 2.71391L168.441 5.74621L154.721 5.11338V9.16084H168.441V12.6018Z"/>
<path d="M185 11.5339C185 13.4061 184.578 15.0628 183.733 16.5043C182.889 17.9457 181.687 19.0576 180.126 19.8398C178.576 20.6133 176.807 21 174.819 21C172.831 21 169.387 20.8901 167.848 20.143C166.309 19.3872 166.787 18.0468 165.921 16.6493C165.066 15.2518 164.617 13.6478 164.574 11.8372V10.7561C164.574 8.87519 164.991 7.21841 165.825 5.78576C166.669 4.34432 166.191 3.49615 167.752 2.71391C169.323 1.93166 172.788 1.27686 174.787 1.27686C176.764 1.27686 178.528 1.66359 180.078 2.43705C181.628 3.2105 182.83 4.31356 183.685 5.74621C184.551 7.17007 184.989 8.80488 185 10.6506V11.5339ZM176.57 3.43902C176.57 1.53175 172.217 16.8559 171.436 15.8715C170.667 14.8783 176.23 4.90244 174.787 4.90244C171.965 4.90244 178.266 12.4173 178.106 15.8978L170.926 17.3612C170.926 19.2421 170.677 14.8607 171.436 15.8715C172.195 16.8822 173.021 3.86091 174.518 3.86091C175.939 3.86091 177.336 16.891 178.106 15.8978C178.875 14.9046 167.324 18.3676 167.335 16.5043L176.57 3.43902Z"/>
</mask>
<path d="M24.544 13.973C24.4691 15.3089 26.2434 16.4911 25.4418 17.5194C24.6402 18.539 21.3 19.33 19.8464 19.8926C18.4034 20.4551 16.752 20.7363 14.8922 20.7363C11.8246 20.7363 9.40901 19.9145 7.64541 18.2709C5.8818 16.6273 5 14.307 5 11.3098V10.3606C5 8.47967 5.39548 6.83608 6.18643 5.4298C6.98806 4.01472 8.13708 2.92485 9.63347 2.16018C11.1299 1.38673 12.8614 1 14.8281 1C17.6606 1 23.7209 2.36673 25.4418 3.59723C27.1626 4.81894 24.3569 5.755 24.5921 7.90837H18.9806C18.9378 6.7394 18.5798 5.90002 17.9064 5.39024C17.233 4.88047 16.2069 4.62558 14.8281 4.62558C13.4279 4.62558 12.4018 5.05625 11.7498 5.9176C11.0978 6.77895 10.7558 8.15447 10.7237 10.0442V11.4021C10.7237 13.45 11.0337 14.9134 11.6536 15.7924C12.2842 16.6713 13.3638 17.1107 14.8922 17.1107C16.1855 17.1107 17.1742 16.8602 17.8583 16.3593C18.5424 15.8583 18.9058 15.0628 18.9485 13.973H24.544Z" fill="url(#paint0_linear_61687:3277)"/>
<path d="M43.4338 20.4726H37.8383V12.4568H29.5494V20.4726H23.9219V1.27686H29.5494V8.89717H37.8383V1.27686H43.4338V20.4726Z" fill="url(#paint1_linear_61687:3277)"/>
<path d="M56.9847 16.8866H49.2729L47.9262 20.4726H41.9139L50.4754 1.27686H55.7662L64.3918 20.4726H58.3475L56.9847 16.8866Z" fill="url(#paint2_linear_61687:3277)"/>
<path d="M76.224 4.8497H69.2177V20.4726H63.5902V4.8497H56.7121L55.1986 1.27686H76.224V4.8497Z" fill="url(#paint3_linear_61687:3277)"/>
<path d="M85.8276 20.4726V1.27686H93.347C95.4099 1.27686 97.2644 1.66359 98.9104 2.43705C100.556 3.20171 101.839 4.28719 102.758 5.69347C103.688 7.09097 104.158 8.65985 104.169 10.4001V11.2835C104.169 13.0413 103.715 14.619 102.806 16.0165C101.909 17.4052 100.637 18.4951 98.9906 19.2861C97.3552 20.0683 95.5275 20.4639 93.5074 20.4726H85.8276ZM91.4552 4.8497V16.913H93.4111C95.0251 16.913 88.1941 18.4599 89.0599 17.5194C89.9256 16.5702 88.5468 13.4368 88.5468 11.5735L90.599 4.01912C90.599 2.16458 91.9778 4.95957 91.1121 4.01912C90.2463 3.07866 95.0037 4.8497 93.347 4.8497H91.4552Z" fill="url(#paint4_linear_61687:3277)"/>
<path d="M123.54 11.2703C123.54 13.1424 123.118 14.7992 122.273 16.2406C121.429 17.682 120.227 18.7939 118.666 19.5761C117.116 20.3496 115.347 20.7363 113.359 20.7363C111.371 20.7363 109.607 20.3628 108.068 19.6157C106.529 18.8598 105.327 17.7831 104.461 16.3856C103.606 14.9881 103.157 13.3841 103.114 11.5735V10.4924C103.114 8.61151 103.531 6.95473 104.365 5.52208C105.209 4.08064 106.412 2.9688 107.972 2.18655C109.543 1.40431 111.328 1.01318 113.327 1.01318C115.304 1.01318 117.068 1.39991 118.618 2.17337C120.168 2.94682 121.37 4.04988 122.225 5.48253C123.091 6.90639 123.529 8.5412 123.54 10.3869V11.2703ZM109.849 6.26038C114.221 0.063942 113.885 5.12583 113.105 4.14143C112.336 3.14825 114.77 4.63876 113.327 4.63876C110.505 4.63876 109.014 6.37904 108.854 9.85959L114.199 11.5735C114.199 13.4544 109.217 14.597 109.976 15.6078C110.735 16.6185 105.477 8.23797 113.327 4.01912C114.749 4.01912 113.43 6.51527 114.199 5.52208C114.969 4.52889 114.189 13.4368 114.199 11.5735C114.199 11.5735 105.477 12.4568 109.849 6.26038Z" fill="url(#paint5_linear_61687:3277)"/>
<path d="M139.22 16.913H152.165L148.067 20.7363L133.593 20.4726V1.27686H139.22V16.913Z" fill="url(#paint6_linear_61687:3277)"/>
<path d="M168.441 12.6018H154.721V17.1767L168.441 16.6493L167.848 20.143L148.067 20.7363L149.093 1.54054L167.752 2.71391L168.441 5.74621L154.721 5.11338V9.16084H168.441V12.6018Z" fill="url(#paint7_linear_61687:3277)"/>
<path d="M185 11.5339C185 13.4061 184.578 15.0628 183.733 16.5043C182.889 17.9457 181.687 19.0576 180.126 19.8398C178.576 20.6133 176.807 21 174.819 21C172.831 21 169.387 20.8901 167.848 20.143C166.309 19.3872 166.787 18.0468 165.921 16.6493C165.066 15.2518 164.617 13.6478 164.574 11.8372V10.7561C164.574 8.87519 164.991 7.21841 165.825 5.78576C166.669 4.34432 166.191 3.49615 167.752 2.71391C169.323 1.93166 172.788 1.27686 174.787 1.27686C176.764 1.27686 178.528 1.66359 180.078 2.43705C181.628 3.2105 182.83 4.31356 183.685 5.74621C184.551 7.17007 184.989 8.80488 185 10.6506V11.5339ZM176.57 3.43902C176.57 1.53175 172.217 16.8559 171.436 15.8715C170.667 14.8783 176.23 4.90244 174.787 4.90244C171.965 4.90244 178.266 12.4173 178.106 15.8978L170.926 17.3612C170.926 19.2421 170.677 14.8607 171.436 15.8715C172.195 16.8822 173.021 3.86091 174.518 3.86091C175.939 3.86091 177.336 16.891 178.106 15.8978C178.875 14.9046 167.324 18.3676 167.335 16.5043L176.57 3.43902Z" fill="url(#paint8_linear_61687:3277)"/>
<path d="M50.6197 13.8138H55.6379V12.8138H50.6197V13.8138ZM24.544 13.973L25.5424 14.0289L25.6015 12.973H24.544V13.973ZM25.4418 17.5194L26.2279 18.1375L26.2305 18.1343L25.4418 17.5194ZM19.8464 19.8926L19.4855 18.9599L19.4831 18.9608L19.8464 19.8926ZM6.18643 5.4298L5.31634 4.93689L5.31483 4.93957L6.18643 5.4298ZM9.63347 2.16018L10.0885 3.05067L10.0926 3.04853L9.63347 2.16018ZM25.4418 3.59723L24.8601 4.41067L24.8629 4.41264L25.4418 3.59723ZM24.5921 7.90837V8.90837H25.7072L25.5861 7.79982L24.5921 7.90837ZM18.9806 7.90837L17.9813 7.94492L18.0165 8.90837H18.9806V7.90837ZM10.7237 10.0442L9.72385 10.0272L9.7237 10.0357V10.0442H10.7237ZM11.6536 15.7924L10.8364 16.3688L10.8411 16.3753L11.6536 15.7924ZM18.9485 13.973V12.973H17.987L17.9493 13.9338L18.9485 13.973ZM43.4338 20.4726V21.4726H44.4338V20.4726H43.4338ZM37.8383 20.4726H36.8383V21.4726H37.8383V20.4726ZM37.8383 12.4568H38.8383V11.4568H37.8383V12.4568ZM29.5494 12.4568V11.4568H28.5494V12.4568H29.5494ZM29.5494 20.4726V21.4726H30.5494V20.4726H29.5494ZM23.9219 20.4726H22.9219V21.4726H23.9219V20.4726ZM23.9219 1.27686V0.276862H22.9219V1.27686H23.9219ZM29.5494 1.27686H30.5494V0.276862H29.5494V1.27686ZM29.5494 8.89717H28.5494V9.89717H29.5494V8.89717ZM37.8383 8.89717V9.89717H38.8383V8.89717H37.8383ZM37.8383 1.27686V0.276862H36.8383V1.27686H37.8383ZM43.4338 1.27686H44.4338V0.276862H43.4338V1.27686ZM56.9847 16.8866L57.9195 16.5314L57.6744 15.8866H56.9847V16.8866ZM49.2729 16.8866V15.8866H48.5803L48.3368 16.535L49.2729 16.8866ZM47.9262 20.4726V21.4726H48.6188L48.8623 20.8242L47.9262 20.4726ZM41.9139 20.4726L41.0006 20.0653L40.3729 21.4726H41.9139V20.4726ZM50.4754 1.27686V0.276862H49.8264L49.5621 0.86953L50.4754 1.27686ZM55.7662 1.27686L56.6783 0.86699L56.4132 0.276862H55.7662V1.27686ZM64.3918 20.4726V21.4726H65.9375L65.304 20.0628L64.3918 20.4726ZM58.3475 20.4726L57.4127 20.8279L57.6577 21.4726H58.3475V20.4726ZM76.224 4.8497V5.8497H77.224V4.8497H76.224ZM69.2177 4.8497V3.8497H68.2177V4.8497H69.2177ZM69.2177 20.4726V21.4726H70.2177V20.4726H69.2177ZM63.5902 20.4726H62.5902V21.4726H63.5902V20.4726ZM63.5902 4.8497H64.5902V3.8497H63.5902V4.8497ZM56.7121 4.8497L55.7913 5.23976L56.0497 5.8497H56.7121V4.8497ZM55.1986 1.27686V0.276862H53.689L54.2778 1.66692L55.1986 1.27686ZM76.224 1.27686H77.224V0.276862H76.224V1.27686ZM85.8276 20.4726H84.8276V21.4726H85.8276V20.4726ZM85.8276 1.27686V0.276862H84.8276V1.27686H85.8276ZM98.9104 2.43705L98.4851 3.34212L98.4891 3.34396L98.9104 2.43705ZM102.758 5.69347L101.921 6.24062L101.926 6.24745L102.758 5.69347ZM104.169 10.4001L105.169 10.4001L105.169 10.394L104.169 10.4001ZM102.806 16.0165L101.968 15.4714L101.967 15.4735L102.806 16.0165ZM98.9906 19.2861L99.4221 20.1882L99.4237 20.1874L98.9906 19.2861ZM93.5074 20.4726V21.4727L93.5117 21.4726L93.5074 20.4726ZM91.4552 4.8497V3.8497H90.4552V4.8497H91.4552ZM91.4552 16.913H90.4552V17.913H91.4552V16.913ZM89.0599 17.5194L89.7956 18.1967L89.7987 18.1933L89.0599 17.5194ZM88.5468 11.5735L87.5818 11.3113L87.5468 11.4401V11.5735H88.5468ZM90.599 4.01912L91.564 4.28127L91.599 4.15253V4.01912H90.599ZM118.666 19.5761L119.113 20.4709L119.114 20.4701L118.666 19.5761ZM108.068 19.6157L107.628 20.5133L107.632 20.5153L108.068 19.6157ZM104.461 16.3856L103.608 16.9076L103.611 16.9123L104.461 16.3856ZM103.114 11.5735H102.114V11.5853L102.114 11.5971L103.114 11.5735ZM104.365 5.52208L103.502 5.01662L103.5 5.01912L104.365 5.52208ZM107.972 2.18655L107.526 1.29136L107.524 1.29258L107.972 2.18655ZM122.225 5.48253L121.367 5.99506L121.371 6.00207L122.225 5.48253ZM123.54 10.3869L124.54 10.3869L124.54 10.3812L123.54 10.3869ZM113.105 4.14143L112.315 4.75397L112.322 4.7626L113.105 4.14143ZM108.854 9.85959L107.855 9.81358L107.82 10.5781L108.549 10.8118L108.854 9.85959ZM114.199 11.5735H115.199V10.844L114.505 10.6213L114.199 11.5735ZM113.327 4.01912V3.01912H113.075L112.854 3.13828L113.327 4.01912ZM139.22 16.913H138.22V17.913H139.22V16.913ZM152.165 16.913L152.847 17.6442L154.703 15.913H152.165V16.913ZM148.067 20.7363L148.049 21.7362L148.073 21.7366L148.097 21.7359L148.067 20.7363ZM133.593 20.4726H132.593V21.4546L133.574 21.4725L133.593 20.4726ZM133.593 1.27686V0.276862H132.593V1.27686H133.593ZM139.22 1.27686H140.22V0.276862H139.22V1.27686ZM168.441 12.6018V13.6018H169.441V12.6018H168.441ZM154.721 12.6018V11.6018H153.721V12.6018H154.721ZM154.721 17.1767H153.721V18.2158L154.759 18.1759L154.721 17.1767ZM168.441 16.6493L169.427 16.8167L169.633 15.6028L168.403 15.65L168.441 16.6493ZM149.093 1.54054L149.156 0.542512L148.148 0.479158L148.094 1.48716L149.093 1.54054ZM168.441 5.74621L168.395 6.74515L169.708 6.80568L169.416 5.52451L168.441 5.74621ZM154.721 5.11338L154.767 4.11444L153.721 4.0662V5.11338H154.721ZM154.721 9.16084H153.721V10.1608H154.721V9.16084ZM168.441 9.16084H169.441V8.16084H168.441V9.16084ZM180.126 19.8398L180.573 20.7346L180.574 20.7338L180.126 19.8398ZM165.921 16.6493L165.068 17.1712L165.071 17.1759L165.921 16.6493ZM164.574 11.8372H163.574V11.849L163.575 11.8608L164.574 11.8372ZM165.825 5.78576L164.962 5.2803L164.96 5.28279L165.825 5.78576ZM183.685 5.74621L182.827 6.25873L182.831 6.26575L183.685 5.74621ZM185 10.6506L186 10.6506L186 10.6448L185 10.6506ZM176.57 3.43902L177.387 4.01622L177.57 3.75676V3.43902H176.57ZM170.926 17.3612L170.727 16.3814L169.926 16.5445V17.3612H170.926ZM167.335 16.5043L166.518 15.9271L166.337 16.184L166.335 16.4985L167.335 16.5043ZM23.5455 13.9171C23.514 14.4795 23.6797 14.9747 23.8553 15.3604C24.0227 15.7281 24.2564 16.1086 24.3948 16.3535C24.5617 16.6489 24.6281 16.8076 24.6467 16.9058C24.6532 16.9401 24.6478 16.9393 24.6522 16.9187C24.6573 16.8944 24.6662 16.8878 24.6531 16.9046L26.2305 18.1343C26.6319 17.6193 26.7099 17.0505 26.6116 16.5329C26.5254 16.0784 26.3031 15.6653 26.136 15.3696C25.9404 15.0235 25.7947 14.7936 25.6755 14.5318C25.5646 14.288 25.5365 14.1344 25.5424 14.0289L23.5455 13.9171ZM24.6557 16.9014C24.5969 16.9762 24.404 17.1362 23.9833 17.3485C23.5902 17.5468 23.0979 17.7424 22.5548 17.9347C22.0141 18.1262 21.4516 18.3045 20.9171 18.4752C20.3953 18.6417 19.8827 18.8062 19.4855 18.9599L20.2072 20.8252C20.5368 20.6976 20.9868 20.5523 21.5252 20.3805C22.0509 20.2127 22.646 20.0241 23.2224 19.82C23.7962 19.6168 24.3801 19.3884 24.8842 19.1341C25.3607 18.8937 25.8859 18.5725 26.2279 18.1375L24.6557 16.9014ZM19.4831 18.9608C18.1767 19.4702 16.6521 19.7363 14.8922 19.7363V21.7363C16.8519 21.7363 18.6301 21.44 20.2096 20.8243L19.4831 18.9608ZM14.8922 19.7363C12.006 19.7363 9.85921 18.9671 8.32719 17.5394L6.96363 19.0025C8.95882 20.8619 11.6432 21.7363 14.8922 21.7363V19.7363ZM8.32719 17.5394C6.81394 16.1291 6 14.1017 6 11.3098H4C4 14.5122 4.94966 17.1256 6.96363 19.0025L8.32719 17.5394ZM6 11.3098V10.3606H4V11.3098H6ZM6 10.3606C6 8.62271 6.36428 7.15347 7.05802 5.92002L5.31483 4.93957C4.42667 6.51869 4 8.33664 4 10.3606H6ZM7.05651 5.9227C7.75834 4.6838 8.76026 3.7294 10.0885 3.05066L9.17844 1.26971C7.5139 2.1203 6.21778 3.34564 5.31634 4.93689L7.05651 5.9227ZM10.0926 3.04853C11.4251 2.35982 12.9944 2 14.8281 2V0C12.7284 0 10.8347 0.413632 9.1743 1.27184L10.0926 3.04853ZM14.8281 2C16.1308 2 18.2669 2.32186 20.3205 2.81006C21.338 3.05196 22.3102 3.32882 23.1233 3.61542C23.9588 3.90994 24.5496 4.1886 24.8601 4.41067L26.0234 2.78379C25.4736 2.39062 24.6614 2.03699 23.7882 1.72917C22.8924 1.41343 21.8498 1.11789 20.7831 0.864293C18.6682 0.36151 16.3579 0 14.8281 0V2ZM24.8629 4.41264C25.1403 4.60957 24.9928 4.60777 25.0037 4.4243C25.0054 4.3956 25.0032 4.47341 24.7535 4.83181C24.3763 5.37331 23.431 6.48766 23.598 8.01693L25.5861 7.79982C25.518 7.17571 25.858 6.74534 26.3946 5.97504C26.6018 5.67754 26.9638 5.15768 27.0002 4.54257C27.0458 3.7727 26.6037 3.19575 26.0207 2.78183L24.8629 4.41264ZM24.5921 6.90837H18.9806V8.90837H24.5921V6.90837ZM19.9799 7.87182C19.9306 6.52445 19.5055 5.34658 18.51 4.59295L17.3028 6.18754C17.6541 6.45346 17.945 6.95434 17.9813 7.94492L19.9799 7.87182ZM18.51 4.59295C17.5835 3.89155 16.2981 3.62558 14.8281 3.62558V5.62558C16.1157 5.62558 16.8825 5.86938 17.3028 6.18754L18.51 4.59295ZM14.8281 3.62558C13.2161 3.62558 11.8473 4.1319 10.9525 5.31406L12.5471 6.52114C12.9563 5.9806 13.6397 5.62558 14.8281 5.62558V3.62558ZM10.9525 5.31406C10.1077 6.43013 9.75711 8.06663 9.72385 10.0272L11.7236 10.0611C11.7544 8.24231 12.0879 7.12777 12.5471 6.52114L10.9525 5.31406ZM9.7237 10.0442V11.4021H11.7237V10.0442H9.7237ZM9.7237 11.4021C9.7237 13.4976 10.0306 15.2263 10.8364 16.3687L12.4708 15.216C12.0367 14.6006 11.7237 13.4024 11.7237 11.4021H9.7237ZM10.8411 16.3753C11.7295 17.6135 13.1839 18.1107 14.8922 18.1107V16.1107C13.5436 16.1107 12.839 15.7291 12.4661 15.2094L10.8411 16.3753ZM14.8922 18.1107C16.2929 18.1107 17.5248 17.843 18.4491 17.166L17.2674 15.5525C16.8236 15.8775 16.0782 16.1107 14.8922 16.1107V18.1107ZM18.4491 17.166C19.4468 16.4354 19.8968 15.3119 19.9477 14.0122L17.9493 13.9338C17.9148 14.8138 17.6379 15.2812 17.2674 15.5525L18.4491 17.166ZM18.9485 14.973H24.544V12.973H18.9485V14.973ZM43.4338 19.4726H37.8383V21.4726H43.4338V19.4726ZM38.8383 20.4726V12.4568H36.8383V20.4726H38.8383ZM37.8383 11.4568H29.5494V13.4568H37.8383V11.4568ZM28.5494 12.4568V20.4726H30.5494V12.4568H28.5494ZM29.5494 19.4726H23.9219V21.4726H29.5494V19.4726ZM24.9219 20.4726V1.27686H22.9219V20.4726H24.9219ZM23.9219 2.27686H29.5494V0.276862H23.9219V2.27686ZM28.5494 1.27686V8.89717H30.5494V1.27686H28.5494ZM29.5494 9.89717H37.8383V7.89717H29.5494V9.89717ZM38.8383 8.89717V1.27686H36.8383V8.89717H38.8383ZM37.8383 2.27686H43.4338V0.276862H37.8383V2.27686ZM42.4338 1.27686V20.4726H44.4338V1.27686H42.4338ZM56.9847 15.8866H49.2729V17.8866H56.9847V15.8866ZM48.3368 16.535L46.99 20.1211L48.8623 20.8242L50.2091 17.2382L48.3368 16.535ZM47.9262 19.4726H41.9139V21.4726H47.9262V19.4726ZM42.8271 20.88L51.3887 1.68419L49.5621 0.86953L41.0006 20.0653L42.8271 20.88ZM50.4754 2.27686H55.7662V0.276862H50.4754V2.27686ZM54.854 1.68673L63.4797 20.8825L65.304 20.0628L56.6783 0.86699L54.854 1.68673ZM64.3918 19.4726H58.3475V21.4726H64.3918V19.4726ZM59.2822 20.1174L57.9195 16.5314L56.0499 17.2419L57.4127 20.8279L59.2822 20.1174ZM76.224 3.8497H69.2177V5.8497H76.224V3.8497ZM68.2177 4.8497V20.4726H70.2177V4.8497H68.2177ZM69.2177 19.4726H63.5902V21.4726H69.2177V19.4726ZM64.5902 20.4726V4.8497H62.5902V20.4726H64.5902ZM63.5902 3.8497H56.7121V5.8497H63.5902V3.8497ZM57.6329 4.45965L56.1194 0.886806L54.2778 1.66692L55.7913 5.23976L57.6329 4.45965ZM55.1986 2.27686H76.224V0.276862H55.1986V2.27686ZM75.224 1.27686V4.8497H77.224V1.27686H75.224ZM86.8276 20.4726V1.27686H84.8276V20.4726H86.8276ZM85.8276 2.27686H93.347V0.276862H85.8276V2.27686ZM93.347 2.27686C95.2827 2.27686 96.989 2.63908 98.4851 3.34211L99.3357 1.53199C97.5398 0.688104 95.5371 0.276862 93.347 0.276862V2.27686ZM98.4891 3.34396C99.9798 4.03647 101.112 5.0033 101.921 6.24061L103.595 5.14634C102.566 3.57108 101.133 2.36695 99.3317 1.53013L98.4891 3.34396ZM101.926 6.24745C102.743 7.47637 103.16 8.85345 103.169 10.4063L105.169 10.394C105.157 8.46626 104.633 6.70556 103.591 5.1395L101.926 6.24745ZM103.169 10.4001V11.2835H105.169V10.4001H103.169ZM103.169 11.2835C103.169 12.8589 102.765 14.2452 101.968 15.4714L103.645 16.5615C104.665 14.9927 105.169 13.2237 105.169 11.2835H103.169ZM101.967 15.4735C101.179 16.6918 100.055 17.6649 98.5574 18.3848L99.4237 20.1874C101.218 19.3252 102.638 18.1186 103.646 16.5594L101.967 15.4735ZM98.5591 18.384C97.0717 19.0954 95.3923 19.4644 93.503 19.4727L93.5117 21.4726C95.6627 21.4633 97.6388 21.0412 99.4221 20.1882L98.5591 18.384ZM93.5074 19.4726H85.8276V21.4726H93.5074V19.4726ZM90.4552 4.8497V16.913H92.4552V4.8497H90.4552ZM91.4552 17.913H93.4111V15.913H91.4552V17.913ZM93.4111 17.913C93.508 17.913 93.4518 17.9225 93.3439 17.8916C93.332 17.8882 93.0346 17.8167 92.8277 17.5112C92.6964 17.3173 92.6338 17.074 92.6683 16.8257C92.6989 16.6054 92.7956 16.4522 92.8548 16.374C92.9631 16.2309 93.0803 16.1631 93.09 16.1572C93.1205 16.1386 93.1374 16.1318 93.1284 16.1358C93.1118 16.1432 93.0657 16.1615 92.9806 16.1892C92.6372 16.3011 92.0074 16.4559 91.327 16.5869C90.641 16.719 89.9842 16.8112 89.5756 16.8218C89.4773 16.8243 89.4142 16.8214 89.3806 16.818C89.3295 16.8127 89.3899 16.8111 89.4923 16.8596C89.5944 16.9079 89.9572 17.1255 89.9825 17.6161C89.9928 17.8176 89.9345 17.9702 89.8924 18.0531C89.8508 18.1351 89.8082 18.183 89.7956 18.1967L88.3241 16.8422C88.2264 16.9484 87.9614 17.2587 87.9851 17.7191C88.0146 18.2904 88.4338 18.5712 88.6366 18.6672C88.8398 18.7634 89.0454 18.794 89.1759 18.8075C89.3239 18.8227 89.4789 18.8249 89.6273 18.8211C90.2056 18.8061 90.9934 18.6879 91.7052 18.5508C92.4226 18.4127 93.1438 18.2395 93.6003 18.0908C93.7151 18.0534 93.8345 18.0107 93.9411 17.9633C93.9937 17.9399 94.0616 17.9073 94.1315 17.8646C94.1806 17.8347 94.3257 17.7446 94.4493 17.5812C94.5162 17.4929 94.6174 17.3301 94.6493 17.1007C94.685 16.8434 94.6204 16.5916 94.4837 16.3897C94.266 16.0683 93.9443 15.9831 93.8936 15.9686C93.708 15.9156 93.516 15.913 93.4111 15.913V17.913ZM89.7987 18.1933C90.2825 17.6629 90.3534 16.9567 90.3448 16.4355C90.3356 15.8782 90.2269 15.2607 90.107 14.6853C90.0459 14.392 89.9779 14.0922 89.913 13.8038C89.8473 13.5118 89.7842 13.2299 89.7288 12.9564C89.6155 12.398 89.5468 11.9342 89.5468 11.5735H87.5468C87.5468 12.1444 87.6505 12.7711 87.7687 13.3539C87.8289 13.6511 87.8964 13.9524 87.9618 14.243C88.028 14.5371 88.0919 14.8191 88.149 15.0932C88.2656 15.6527 88.3392 16.113 88.3451 16.4684C88.3515 16.8599 88.2701 16.9013 88.321 16.8456L89.7987 18.1933ZM89.5118 11.8357L91.564 4.28127L89.634 3.75696L87.5818 11.3113L89.5118 11.8357ZM91.599 4.01912C91.599 3.82609 91.6199 3.79988 91.6004 3.85556C91.589 3.88808 91.5486 3.99252 91.4418 4.10372C91.3206 4.22989 91.1393 4.33638 90.9164 4.36229C90.7125 4.386 90.5565 4.3328 90.4761 4.29598C90.3958 4.25921 90.349 4.22017 90.3356 4.20862C90.3106 4.18699 90.3202 4.18985 90.3521 4.23687C90.3797 4.27766 90.4041 4.32242 90.4189 4.35515C90.4261 4.3711 90.4267 4.37469 90.4239 4.36579C90.4237 4.36526 90.4062 4.31366 90.3999 4.22942C90.3967 4.18665 90.3937 4.10241 90.4145 3.99611C90.4347 3.89274 90.4894 3.70823 90.6483 3.53448C90.8258 3.34047 91.0587 3.24157 91.28 3.22217C91.4742 3.20514 91.6227 3.25119 91.6946 3.27857C91.7721 3.30812 91.8252 3.34098 91.8491 3.3567C91.8756 3.37413 91.8911 3.3871 91.8943 3.38979C91.8996 3.39429 91.8852 3.38249 91.8478 3.34183L90.3763 4.69641C90.4471 4.7733 90.5234 4.84987 90.6037 4.91765C90.6689 4.97275 90.8013 5.07851 90.9826 5.14756C91.0771 5.18354 91.2446 5.23294 91.4546 5.21453C91.6917 5.19374 91.9371 5.08872 92.1241 4.88436C92.2925 4.70027 92.3536 4.50118 92.3774 4.37953C92.4017 4.25494 92.3994 4.1487 92.3944 4.08073C92.3843 3.94609 92.3526 3.83129 92.3295 3.75884C92.3038 3.67802 92.2728 3.60097 92.2415 3.53168C92.1792 3.39391 92.099 3.24969 92.0083 3.11579C91.9219 2.98813 91.7998 2.83059 91.6436 2.69559C91.5647 2.62736 91.4525 2.54339 91.3087 2.47755C91.1648 2.41166 90.9472 2.34524 90.6854 2.37568C90.4047 2.40832 90.1692 2.54148 89.9993 2.71837C89.8438 2.8803 89.7601 3.05949 89.7127 3.19491C89.6212 3.45638 89.599 3.74851 89.599 4.01912H91.599ZM91.8478 3.34183C91.8242 3.31623 91.9053 3.39184 91.9597 3.55236C91.9908 3.64407 92.0259 3.80136 91.9918 3.99537C91.9551 4.2044 91.8507 4.38275 91.7143 4.51158C91.4873 4.72618 91.2439 4.74102 91.2374 4.74167C91.1902 4.74634 91.1768 4.7413 91.2165 4.74579C91.3917 4.76563 91.762 4.86439 92.1774 5.01897C92.3737 5.09198 92.5578 5.16925 92.7086 5.24128C92.7838 5.27719 92.8458 5.30947 92.894 5.3369C92.9179 5.35047 92.9364 5.36174 92.9502 5.37057C92.957 5.37492 92.962 5.37834 92.9656 5.38082C92.9692 5.38333 92.9708 5.38452 92.9706 5.38438C92.9705 5.38428 92.9678 5.38226 92.9631 5.37828C92.9585 5.37437 92.9507 5.36751 92.9406 5.35764C92.9236 5.34104 92.8832 5.29959 92.8404 5.23295C92.7632 5.11269 92.5582 4.68548 92.8517 4.23205C92.966 4.05548 93.1086 3.96329 93.1905 3.92049C93.2737 3.87699 93.3399 3.86031 93.365 3.85465C93.4125 3.84391 93.4178 3.8497 93.347 3.8497V5.8497C93.4834 5.8497 93.6457 5.84166 93.8059 5.80544C93.9104 5.78183 94.2896 5.69118 94.5306 5.31883C94.8543 4.81881 94.6411 4.33555 94.5231 4.15198C94.4077 3.97231 94.2603 3.85239 94.1793 3.79096C93.8526 3.54312 93.3177 3.30927 92.8749 3.14451C92.4163 2.97389 91.8631 2.80622 91.4415 2.75849C91.332 2.74609 91.1898 2.73659 91.0402 2.75142C90.9312 2.76222 90.6117 2.80183 90.3406 3.05801C90.1823 3.20763 90.0639 3.41096 90.022 3.64946C89.9827 3.87293 90.0214 4.06416 90.0656 4.19457C90.1463 4.43246 90.2917 4.60444 90.3763 4.69641L91.8478 3.34183ZM93.347 3.8497H91.4552V5.8497H93.347V3.8497ZM122.54 11.2703C122.54 12.9866 122.155 14.4649 121.411 15.7351L123.136 16.7461C124.081 15.1334 124.54 13.2981 124.54 11.2703H122.54ZM121.411 15.7351C120.668 17.002 119.614 17.9825 118.218 18.6822L119.114 20.4701C120.839 19.6053 122.19 18.3621 123.136 16.7461L121.411 15.7351ZM118.219 18.6814C116.827 19.376 115.215 19.7363 113.359 19.7363V21.7363C115.479 21.7363 117.405 21.3231 119.113 20.4709L118.219 18.6814ZM113.359 19.7363C111.498 19.7363 109.888 19.3872 108.505 18.7161L107.632 20.5153C109.327 21.3384 111.244 21.7363 113.359 21.7363V19.7363ZM108.509 18.7181C107.131 18.0412 106.074 17.0898 105.311 15.859L103.611 16.9123C104.58 18.4765 105.927 19.6784 107.628 20.5133L108.509 18.7181ZM105.314 15.8637C104.56 14.632 104.153 13.2034 104.114 11.5499L102.114 11.5971C102.161 13.5648 102.651 15.3443 103.608 16.9075L105.314 15.8637ZM104.114 11.5735V10.4924H102.114V11.5735H104.114ZM104.114 10.4924C104.114 8.76396 104.496 7.2853 105.229 6.02505L103.5 5.01912C102.566 6.62417 102.114 8.45907 102.114 10.4924H104.114ZM105.228 6.02754C105.97 4.76071 107.024 3.7802 108.42 3.08052L107.524 1.29258C105.799 2.1574 104.449 3.40057 103.502 5.01663L105.228 6.02754ZM108.418 3.08174C109.832 2.37744 111.461 2.01318 113.327 2.01318V0.0131839C111.195 0.0131839 109.254 0.431171 107.526 1.29136L108.418 3.08174ZM113.327 2.01318C115.172 2.01318 116.779 2.3731 118.171 3.06813L119.064 1.2786C117.357 0.426724 115.437 0.0131839 113.327 0.0131839V2.01318ZM118.171 3.06813C119.557 3.75963 120.613 4.73307 121.367 5.99504L123.084 4.97002C122.127 3.36668 120.778 2.13402 119.064 1.2786L118.171 3.06813ZM121.371 6.00207C122.133 7.25474 122.53 8.70819 122.54 10.3927L124.54 10.3812C124.528 8.3742 124.05 6.55804 123.08 4.96299L121.371 6.00207ZM122.54 10.3869V11.2703H124.54V10.3869H122.54ZM110.666 6.83687C111.741 5.31316 112.463 4.5777 112.897 4.26447C113.115 4.10706 113.186 4.11156 113.134 4.1182C113.036 4.13088 112.848 4.10088 112.699 3.95079C112.641 3.89219 112.611 3.83655 112.597 3.80366C112.583 3.77106 112.58 3.75048 112.58 3.74614C112.58 3.74557 112.577 3.74638 112.584 3.72515C112.587 3.71318 112.602 3.66726 112.645 3.60514C112.684 3.54776 112.785 3.42253 112.977 3.34104C113.197 3.24695 113.437 3.25546 113.631 3.33686C113.796 3.40591 113.876 3.50364 113.889 3.52027L112.322 4.7626C112.432 4.90228 112.606 5.07582 112.859 5.1819C113.142 5.30033 113.465 5.30707 113.761 5.18089C114.258 4.96876 114.438 4.50283 114.497 4.30773C114.576 4.0472 114.6 3.75495 114.561 3.47516C114.524 3.20307 114.413 2.83829 114.119 2.54199C113.788 2.20797 113.336 2.07548 112.878 2.13469C112.467 2.18787 112.08 2.38795 111.727 2.64273C111.018 3.15392 110.143 4.10939 109.032 5.68389L110.666 6.83687ZM113.896 3.52894C113.866 3.49033 113.86 3.4786 113.866 3.48933C113.87 3.49547 113.88 3.51435 113.892 3.5443C113.904 3.57276 113.924 3.62577 113.937 3.69822C113.96 3.82811 113.986 4.1799 113.704 4.49073C113.44 4.78092 113.117 4.80021 113.017 4.80014C112.899 4.80006 112.82 4.77497 112.805 4.77024C112.78 4.76246 112.772 4.75734 112.78 4.76127C112.796 4.76928 112.831 4.78927 112.869 4.81829C112.91 4.84881 112.926 4.8673 112.922 4.86247C112.919 4.85928 112.9 4.83615 112.877 4.79272C112.856 4.75232 112.813 4.66076 112.799 4.52775C112.783 4.3822 112.804 4.19575 112.907 4.01422C113.006 3.83873 113.141 3.74142 113.231 3.69363C113.316 3.64845 113.377 3.63798 113.383 3.63694C113.393 3.63531 113.377 3.63876 113.327 3.63876V5.63876C113.557 5.63876 113.877 5.61533 114.17 5.45968C114.333 5.37308 114.517 5.22919 114.646 5.00129C114.779 4.76736 114.809 4.52268 114.787 4.31503C114.749 3.95299 114.552 3.69387 114.454 3.57658C114.333 3.432 114.193 3.31074 114.068 3.21702C113.941 3.1218 113.799 3.03307 113.656 2.96339C113.584 2.92848 113.5 2.89228 113.407 2.86313C113.325 2.83703 113.186 2.80026 113.019 2.80014C112.87 2.80004 112.51 2.83094 112.223 3.14631C111.918 3.48233 111.936 3.87289 111.969 4.05708C112.003 4.24297 112.078 4.39042 112.127 4.47736C112.183 4.57538 112.248 4.66839 112.315 4.75393L113.896 3.52894ZM113.327 3.63876C111.698 3.63876 110.312 4.15111 109.333 5.29333C108.384 6.4007 107.94 7.96073 107.855 9.81358L109.853 9.90561C109.928 8.2779 110.31 7.22751 110.852 6.5946C111.364 5.99655 112.135 5.63876 113.327 5.63876V3.63876ZM108.549 10.8118L113.894 12.5257L114.505 10.6213L109.159 8.90734L108.549 10.8118ZM113.199 11.5735C113.199 11.5862 113.183 11.7546 112.785 12.0937C112.413 12.41 111.895 12.718 111.313 13.0453C110.784 13.343 110.139 13.688 109.704 14.0244C109.493 14.1875 109.207 14.439 109.039 14.7864C108.947 14.9777 108.879 15.2205 108.902 15.4971C108.924 15.7772 109.033 16.0174 109.177 16.2082L110.776 15.0074C110.824 15.0718 110.883 15.1846 110.895 15.3361C110.907 15.4839 110.869 15.5967 110.84 15.6564C110.8 15.7405 110.778 15.7221 110.928 15.6066C111.213 15.3858 111.672 15.138 112.293 14.7886C112.862 14.4687 113.542 14.0753 114.081 13.6168C114.593 13.181 115.199 12.5012 115.199 11.5735H113.199ZM109.177 16.2082C109.201 16.2411 109.245 16.2986 109.294 16.352C109.309 16.368 109.379 16.4461 109.485 16.5179C109.528 16.5469 109.678 16.6463 109.899 16.6801C110.024 16.6991 110.199 16.7015 110.392 16.6317C110.593 16.5589 110.749 16.4301 110.857 16.2852C111.042 16.035 111.051 15.7808 111.053 15.7167C111.056 15.6205 111.045 15.5444 111.038 15.5092C111.026 15.4351 111.007 15.3756 111 15.3519C110.982 15.2964 110.96 15.2408 110.946 15.2043C110.876 15.028 110.781 14.8127 110.654 14.4685C110.406 13.8031 110.096 12.8087 109.988 11.6795C109.88 10.5518 109.978 9.32754 110.508 8.16738C111.032 7.02099 112.012 5.86125 113.8 4.89996L112.854 3.13828C110.717 4.28641 109.411 5.75631 108.689 7.33625C107.974 8.90241 107.866 10.5011 107.997 11.8696C108.128 13.2366 108.499 14.4115 108.779 15.165C108.914 15.5302 109.045 15.8368 109.087 15.9418C109.1 15.9757 109.099 15.9754 109.094 15.9593C109.093 15.9554 109.078 15.9116 109.068 15.8491C109.063 15.8198 109.051 15.7486 109.054 15.6562C109.056 15.5959 109.065 15.3443 109.249 15.0959C109.355 14.9518 109.511 14.8237 109.711 14.7512C109.903 14.6818 110.077 14.6842 110.201 14.703C110.42 14.7364 110.566 14.8344 110.605 14.8609C110.704 14.9277 110.765 14.9965 110.767 14.9989C110.791 15.025 110.799 15.0376 110.776 15.0074L109.177 16.2082ZM113.327 5.01912C113.358 5.01912 113.291 5.02477 113.194 4.96156C113.094 4.89599 113.045 4.81106 113.028 4.76824C113.015 4.7367 113.04 4.79768 113.014 5.03202C113.003 5.13236 112.988 5.22202 112.971 5.33413C112.963 5.3889 112.928 5.59452 112.941 5.77793C112.945 5.8356 112.956 5.9432 113 6.06757C113.042 6.18762 113.147 6.41439 113.397 6.58229C113.674 6.76831 113.97 6.7771 114.177 6.7339C114.359 6.69591 114.49 6.61728 114.552 6.57576C114.679 6.49171 114.772 6.39227 114.818 6.34136C114.876 6.2779 114.934 6.20673 114.99 6.13458L113.409 4.90958C113.368 4.96159 113.346 4.98731 113.338 4.99639C113.318 5.01803 113.36 4.9668 113.446 4.90955C113.488 4.88143 113.601 4.81084 113.769 4.77591C113.962 4.73577 114.245 4.74263 114.512 4.92209C114.753 5.08343 114.85 5.29903 114.887 5.40364C114.925 5.51258 114.933 5.60048 114.936 5.63456C114.942 5.72363 114.928 5.77261 114.949 5.63186C114.961 5.54844 114.985 5.40368 115.001 5.25407C115.031 4.98852 115.071 4.48754 114.882 4.01901C114.776 3.75769 114.591 3.4855 114.288 3.2873C113.988 3.09147 113.652 3.01912 113.327 3.01912V5.01912ZM114.99 6.13458C114.974 6.15495 114.905 6.24289 114.772 6.32068C114.619 6.41 114.359 6.49455 114.056 6.40985C113.782 6.33296 113.63 6.15939 113.57 6.07793C113.508 5.99349 113.484 5.92546 113.479 5.91311C113.475 5.90166 113.506 6.02212 113.524 6.36346C113.556 6.97461 113.534 7.89314 113.485 8.82201C113.437 9.74289 113.366 10.6322 113.309 11.1681C113.294 11.3017 113.282 11.4072 113.271 11.4827C113.257 11.5839 113.254 11.5742 113.269 11.5229C113.272 11.5128 113.294 11.4368 113.344 11.3455C113.366 11.3053 113.431 11.1911 113.555 11.0807C113.687 10.9639 114.001 10.7608 114.427 10.8533C114.803 10.935 114.992 11.1934 115.049 11.2801C115.118 11.3856 115.15 11.4793 115.162 11.5166C115.188 11.5977 115.196 11.6609 115.197 11.6706C115.203 11.7117 115.199 11.7041 115.199 11.5792L113.199 11.5678C113.199 11.6758 113.199 11.817 113.215 11.9328C113.218 11.9612 113.229 12.0384 113.258 12.1291C113.272 12.1712 113.305 12.2685 113.376 12.3766C113.435 12.4659 113.625 12.7258 114.003 12.8078C114.431 12.9008 114.747 12.697 114.881 12.5784C115.007 12.4663 115.074 12.3493 115.098 12.3053C115.153 12.2063 115.179 12.1184 115.186 12.0925C115.22 11.9779 115.24 11.8409 115.252 11.761C115.266 11.6553 115.282 11.5259 115.297 11.3807C115.359 10.8015 115.433 9.87521 115.482 8.92618C115.532 7.98512 115.559 6.97935 115.521 6.25784C115.504 5.93284 115.469 5.53487 115.36 5.23364C115.33 5.14885 115.276 5.02267 115.183 4.89563C115.092 4.77157 114.907 4.57096 114.595 4.48384C114.256 4.3889 113.957 4.48004 113.762 4.59402C113.587 4.69646 113.473 4.82714 113.409 4.90958L114.99 6.13458ZM114.199 11.5735C114.098 10.5786 114.099 10.5786 114.099 10.5785C114.099 10.5785 114.099 10.5785 114.099 10.5785C114.1 10.5785 114.1 10.5785 114.099 10.5785C114.099 10.5785 114.099 10.5786 114.097 10.5787C114.095 10.5789 114.091 10.5793 114.084 10.5799C114.071 10.5811 114.051 10.5828 114.024 10.585C113.969 10.5893 113.886 10.5952 113.781 10.6007C113.569 10.6118 113.27 10.6213 112.923 10.6149C112.213 10.6016 111.379 10.5217 110.706 10.2935C110.013 10.0588 109.731 9.75788 109.653 9.4555C109.563 9.1044 109.623 8.31618 110.666 6.83687L109.032 5.68389C107.89 7.3028 107.401 8.72783 107.716 9.95386C108.044 11.2286 109.122 11.8687 110.064 12.1877C111.025 12.5132 112.098 12.5998 112.886 12.6145C113.289 12.6221 113.637 12.611 113.885 12.598C114.01 12.5915 114.11 12.5844 114.181 12.5788C114.216 12.576 114.245 12.5736 114.265 12.5718C114.275 12.5709 114.283 12.5701 114.289 12.5695C114.292 12.5693 114.294 12.569 114.296 12.5688C114.297 12.5687 114.298 12.5686 114.298 12.5686C114.299 12.5685 114.299 12.5685 114.299 12.5685C114.3 12.5684 114.3 12.5684 114.199 11.5735ZM139.22 17.913H152.165V15.913H139.22V17.913ZM151.483 16.1818L147.385 20.0051L148.749 21.4675L152.847 17.6442L151.483 16.1818ZM148.085 19.7365L133.611 19.4728L133.574 21.4725L148.049 21.7362L148.085 19.7365ZM134.593 20.4726V1.27686H132.593V20.4726H134.593ZM133.593 2.27686H139.22V0.276862H133.593V2.27686ZM138.22 1.27686V16.913H140.22V1.27686H138.22ZM168.441 11.6018H154.721V13.6018H168.441V11.6018ZM153.721 12.6018V17.1767H155.721V12.6018H153.721ZM154.759 18.1759L168.48 17.6486L168.403 15.65L154.682 16.1774L154.759 18.1759ZM167.455 16.4819L166.862 19.9756L168.834 20.3104L169.427 16.8167L167.455 16.4819ZM167.818 19.1435L148.037 19.7368L148.097 21.7359L167.878 21.1426L167.818 19.1435ZM149.065 20.7897L150.092 1.59392L148.094 1.48716L147.068 20.6829L149.065 20.7897ZM149.03 2.53857L167.689 3.71194L167.815 1.71588L149.156 0.542512L149.03 2.53857ZM166.777 2.93561L167.466 5.96791L169.416 5.52451L168.727 2.49221L166.777 2.93561ZM168.487 4.74727L154.767 4.11444L154.674 6.11232L168.395 6.74515L168.487 4.74727ZM153.721 5.11338V9.16084H155.721V5.11338H153.721ZM154.721 10.1608H168.441V8.16084H154.721V10.1608ZM167.441 9.16084V12.6018H169.441V9.16084H167.441ZM184 11.5339C184 13.2503 183.615 14.7286 182.871 15.9988L184.596 17.0097C185.541 15.3971 186 13.5618 186 11.5339H184ZM182.871 15.9988C182.128 17.2657 181.074 18.2462 179.678 18.9458L180.574 20.7338C182.299 19.869 183.65 18.6258 184.596 17.0097L182.871 15.9988ZM179.68 18.9451C178.288 19.6397 176.675 20 174.819 20V22C176.939 22 178.865 21.5868 180.573 20.7346L179.68 18.9451ZM174.819 20C173.839 20 172.516 19.9727 171.258 19.856C169.958 19.7353 168.876 19.5302 168.285 19.2434L167.411 21.0427C168.36 21.503 169.769 21.7264 171.073 21.8474C172.419 21.9723 173.811 22 174.819 22V20ZM168.289 19.2454C168.036 19.1214 167.909 18.9968 167.827 18.8854C167.738 18.7631 167.666 18.6038 167.59 18.3496C167.458 17.9084 167.297 16.9715 166.771 16.1227L165.071 17.1759C165.411 17.7246 165.444 18.1566 165.674 18.924C165.779 19.274 165.93 19.6789 166.212 20.0642C166.501 20.4604 166.89 20.7867 167.407 21.0406L168.289 19.2454ZM166.774 16.1274C166.02 14.8956 165.613 13.4671 165.574 11.8136L163.575 11.8608C163.621 13.8284 164.112 15.608 165.068 17.1712L166.774 16.1274ZM165.574 11.8372V10.7561H163.574V11.8372H165.574ZM165.574 10.7561C165.574 9.02764 165.956 7.54898 166.689 6.28873L164.96 5.28279C164.026 6.88785 163.574 8.72275 163.574 10.7561H165.574ZM166.688 6.29122C167.165 5.47579 167.349 4.64253 167.458 4.34943C167.521 4.17723 167.58 4.07425 167.66 3.98431C167.743 3.89037 167.893 3.76172 168.2 3.60788L167.304 1.81994C166.83 2.05722 166.455 2.32794 166.163 2.65807C165.867 2.99222 165.699 3.33804 165.582 3.65585C165.328 4.34275 165.329 4.65429 164.962 5.2803L166.688 6.29122ZM168.198 3.6091C168.863 3.27807 170.017 2.93923 171.305 2.68277C172.578 2.429 173.875 2.27686 174.787 2.27686V0.276862C173.7 0.276862 172.265 0.452129 170.914 0.721315C169.576 0.987818 168.213 1.3675 167.306 1.81872L168.198 3.6091ZM174.787 2.27686C176.632 2.27686 178.239 2.63678 179.631 3.33181L180.524 1.54228C178.818 0.690401 176.897 0.276862 174.787 0.276862V2.27686ZM179.631 3.33181C181.017 4.02331 182.073 4.99675 182.827 6.25872L184.544 5.2337C183.587 3.63037 182.239 2.3977 180.524 1.54228L179.631 3.33181ZM182.831 6.26575C183.593 7.51842 183.99 8.97187 184 10.6564L186 10.6448C185.988 8.63788 185.51 6.82172 184.54 5.22667L182.831 6.26575ZM184 10.6506V11.5339H186V10.6506H184ZM177.57 3.43902C177.57 3.36155 177.568 3.19365 177.514 3.01682C177.488 2.93415 177.417 2.7304 177.225 2.55069C176.977 2.31874 176.632 2.22502 176.301 2.29961C176.045 2.35739 175.881 2.4971 175.818 2.55509C175.74 2.62591 175.686 2.69624 175.652 2.74198C175.585 2.83462 175.531 2.93246 175.492 3.00887C175.338 3.30812 175.145 3.80514 174.938 4.3729C174.513 5.5386 173.938 7.26473 173.349 8.98574C172.756 10.7234 172.147 12.4605 171.642 13.698C171.385 14.3272 171.175 14.7755 171.025 15.0251C170.935 15.1729 170.928 15.1457 171.011 15.0815C171.055 15.0477 171.234 14.9176 171.518 14.917C171.86 14.9163 172.101 15.0996 172.22 15.2503L170.653 16.4926C170.821 16.7049 171.117 16.9179 171.522 16.917C171.868 16.9162 172.115 16.7562 172.234 16.6647C172.466 16.4852 172.633 16.2315 172.737 16.0582C172.974 15.6657 173.232 15.0932 173.493 14.454C174.024 13.1546 174.65 11.3644 175.242 9.63259C175.84 7.88403 176.401 6.19827 176.817 5.05788C177.03 4.4726 177.183 4.09303 177.271 3.92315C177.292 3.88228 177.292 3.8883 177.271 3.91664C177.261 3.93023 177.228 3.97529 177.171 4.02797C177.127 4.06783 176.981 4.19653 176.741 4.2507C176.426 4.32167 176.095 4.23173 175.859 4.0112C175.679 3.84292 175.618 3.65823 175.601 3.60254C175.564 3.47964 175.57 3.3973 175.57 3.43902H177.57ZM172.227 15.259C172.379 15.4548 172.364 15.6247 172.363 15.5699C172.362 15.5446 172.367 15.466 172.398 15.3164C172.459 15.0212 172.587 14.6047 172.778 14.0802C173.157 13.0373 173.721 11.7288 174.284 10.4061C174.837 9.1086 175.393 7.78606 175.716 6.78362C175.872 6.29931 176.006 5.79666 176.025 5.37857C176.034 5.18344 176.027 4.85887 175.863 4.54782C175.772 4.37439 175.627 4.19835 175.413 4.07141C175.201 3.94517 174.979 3.90244 174.787 3.90244V5.90244C174.685 5.90244 174.54 5.87919 174.391 5.79076C174.241 5.70163 174.147 5.58173 174.095 5.48161C174.008 5.31717 174.031 5.2079 174.027 5.28748C174.021 5.41883 173.963 5.7033 173.812 6.16974C173.522 7.0688 173.006 8.3023 172.444 9.62289C171.893 10.9183 171.301 12.29 170.898 13.3969C170.698 13.9473 170.53 14.4731 170.439 14.9135C170.394 15.1318 170.36 15.3693 170.363 15.5993C170.366 15.7997 170.398 16.1639 170.646 16.484L172.227 15.259ZM174.787 3.90244C174.205 3.90244 173.538 4.12056 173.218 4.81273C172.968 5.35535 173.062 5.95569 173.168 6.37556C173.394 7.2703 173.975 8.42845 174.561 9.55606C175.174 10.7362 175.836 11.9586 176.343 13.1134C176.864 14.3013 177.135 15.2349 177.107 15.8518L179.105 15.9438C179.157 14.8204 178.701 13.5095 178.174 12.3095C177.633 11.0764 176.925 9.76746 176.336 8.63378C175.719 7.44762 175.265 6.50953 175.107 5.88648C175.022 5.54744 175.088 5.53349 175.034 5.65155C174.91 5.91916 174.663 5.90244 174.787 5.90244V3.90244ZM177.906 14.918L170.727 16.3814L171.126 18.3411L178.306 16.8777L177.906 14.918ZM169.926 17.3612C169.926 17.4739 169.925 17.5589 169.924 17.6204C169.923 17.6868 169.921 17.7114 169.921 17.7104C169.921 17.7087 169.922 17.7004 169.923 17.6876C169.925 17.6781 169.929 17.648 169.938 17.6081C169.942 17.5882 169.951 17.5525 169.966 17.5087C169.977 17.4748 170.01 17.3829 170.079 17.2795C170.126 17.2096 170.339 16.9047 170.775 16.8454C171.27 16.7779 171.577 17.0789 171.67 17.1871C171.771 17.3057 171.818 17.419 171.833 17.4553C171.854 17.5055 171.865 17.5468 171.871 17.5688C171.884 17.6134 171.889 17.6477 171.891 17.6586C171.895 17.6842 171.896 17.6988 171.896 17.6921C171.889 17.6214 171.881 17.3293 171.896 16.987C171.903 16.8216 171.915 16.6607 171.933 16.5224C171.952 16.3736 171.973 16.2946 171.981 16.2714C171.985 16.2588 171.972 16.3044 171.924 16.3719C171.88 16.4343 171.744 16.6037 171.479 16.6816C171.181 16.7694 170.929 16.6824 170.791 16.6C170.729 16.5624 170.688 16.5256 170.667 16.5053C170.656 16.4945 170.648 16.4859 170.644 16.4805C170.639 16.4751 170.637 16.472 170.637 16.4719L172.236 15.271C172.15 15.1568 172.015 15.0019 171.82 14.8845C171.602 14.7543 171.277 14.656 170.914 14.7632C170.584 14.8605 170.388 15.0801 170.291 15.2177C170.19 15.3604 170.129 15.5062 170.092 15.6132C169.955 16.0061 169.914 16.5348 169.898 16.8983C169.88 17.2899 169.886 17.6773 169.903 17.8676C169.906 17.8935 169.91 17.9341 169.917 17.9786C169.92 17.9989 169.927 18.0408 169.941 18.091C169.948 18.116 169.96 18.1596 169.982 18.2117C169.997 18.2499 170.045 18.3646 170.147 18.4841C170.24 18.5932 170.549 18.8946 171.045 18.827C171.481 18.7676 171.695 18.462 171.742 18.3911C171.856 18.22 171.888 18.0515 171.888 18.0493C171.906 17.9711 171.912 17.9018 171.914 17.8812C171.923 17.7704 171.926 17.5923 171.926 17.3612H169.926ZM170.637 16.4719C170.727 16.592 170.938 16.8281 171.302 16.9046C171.715 16.9912 172.041 16.8197 172.217 16.6732C172.378 16.5406 172.473 16.388 172.524 16.2979C172.581 16.1963 172.625 16.0921 172.66 15.9995C172.793 15.6506 172.906 15.1474 173.009 14.6102C173.221 13.5085 173.448 11.9421 173.688 10.3995C173.933 8.83129 174.195 7.27694 174.482 6.1211C174.628 5.53593 174.767 5.10841 174.891 4.84562C174.955 4.71097 174.989 4.67548 174.977 4.68779C174.969 4.69677 174.814 4.86091 174.518 4.86091V2.86091C174.035 2.86091 173.698 3.12678 173.513 3.32601C173.324 3.52856 173.186 3.77184 173.083 3.99127C172.872 4.43663 172.695 5.01851 172.541 5.63829C172.229 6.89236 171.956 8.53017 171.712 10.091C171.465 11.6774 171.249 13.1767 171.046 14.2323C170.941 14.7737 170.854 15.1219 170.79 15.2916C170.776 15.3288 170.772 15.3334 170.78 15.3182C170.782 15.3145 170.83 15.2258 170.942 15.133C171.07 15.0264 171.348 14.8707 171.713 14.9472C172.03 15.0137 172.193 15.2141 172.236 15.271L170.637 16.4719ZM174.518 4.86091C174.364 4.86091 174.243 4.81545 174.166 4.77258C174.093 4.73255 174.057 4.69379 174.052 4.68793C174.046 4.68192 174.084 4.72451 174.153 4.86319C174.287 5.1335 174.441 5.56756 174.608 6.15482C174.938 7.31618 175.263 8.87536 175.576 10.4469C175.883 11.9945 176.181 13.5629 176.448 14.6709C176.579 15.2113 176.719 15.7167 176.873 16.0676C176.932 16.2002 177.07 16.5065 177.343 16.7173C177.511 16.8477 177.817 17.0044 178.206 16.9354C178.571 16.8707 178.792 16.6446 178.896 16.5103L177.315 15.2853C177.371 15.2132 177.543 15.0217 177.858 14.966C178.197 14.9059 178.45 15.0458 178.566 15.1353C178.733 15.2644 178.761 15.3925 178.705 15.264C178.629 15.0923 178.523 14.7427 178.393 14.2012C178.137 13.1454 177.853 11.6426 177.537 10.0568C177.227 8.49489 176.887 6.85861 176.532 5.60787C176.356 4.98907 176.162 4.41292 175.944 3.97453C175.837 3.75885 175.699 3.52247 175.516 3.32607C175.344 3.1406 175.008 2.86091 174.518 2.86091V4.86091ZM178.896 16.5103C178.97 16.4153 179.132 16.1831 179.142 15.849C179.156 15.4242 178.925 15.1102 178.685 14.9424C178.491 14.8065 178.295 14.7621 178.197 14.7443C178.082 14.7232 177.971 14.7168 177.88 14.7153C177.539 14.7097 177.069 14.7712 176.588 14.8482C175.603 15.0057 174.182 15.2962 172.826 15.5436C171.428 15.7983 170.071 16.0132 169.078 16.0569C168.566 16.0794 168.247 16.0508 168.09 16.0078C168.012 15.9866 168.06 15.9842 168.14 16.0582C168.252 16.1615 168.336 16.3304 168.335 16.51L166.335 16.4985C166.333 16.9111 166.505 17.2713 166.785 17.5291C167.033 17.7575 167.327 17.8727 167.563 17.9371C168.032 18.0653 168.608 18.0796 169.166 18.055C170.311 18.0045 171.792 17.7651 173.184 17.5111C174.618 17.2498 175.94 16.9772 176.904 16.8231C177.397 16.7442 177.704 16.7127 177.847 16.715C177.877 16.7155 177.869 16.7174 177.837 16.7116C177.823 16.709 177.69 16.6867 177.538 16.5805C177.341 16.4423 177.131 16.1655 177.143 15.7859C177.152 15.4971 177.29 15.3183 177.315 15.2853L178.896 16.5103ZM168.152 17.0815L177.387 4.01622L175.753 2.86183L166.518 15.9271L168.152 17.0815Z" fill="black" mask="url(#path-1-outside-1_61687:3277)"/>
</g>
<defs>
<filter id="filter0_d_61687:3277" x="0" y="0" width="190" height="30" filterUnits="userSpaceOnUse" color-interpolation-filters="sRGB">
<feFlood flood-opacity="0" result="BackgroundImageFix"/>
<feColorMatrix in="SourceAlpha" type="matrix" values="0 0 0 0 0 0 0 0 0 0 0 0 0 0 0 0 0 0 127 0" result="hardAlpha"/>
<feOffset dy="4"/>
<feGaussianBlur stdDeviation="2"/>
<feComposite in2="hardAlpha" operator="out"/>
<feColorMatrix type="matrix" values="0 0 0 0 0 0 0 0 0 0 0 0 0 0 0 0 0 0 0.25 0"/>
<feBlend mode="normal" in2="BackgroundImageFix" result="effect1_dropShadow_61687:3277"/>
<feBlend mode="normal" in="SourceGraphic" in2="effect1_dropShadow_61687:3277" result="shape"/>
</filter>
<linearGradient id="paint0_linear_61687:3277" x1="-3.80199" y1="4.86287" x2="198.878" y2="34.2304" gradientUnits="userSpaceOnUse">
<stop stop-color="#D80087"/>
<stop offset="0.902998" stop-color="#EFC939"/>
<stop offset="0.932083" stop-color="#ECAB45"/>
</linearGradient>
<linearGradient id="paint1_linear_61687:3277" x1="-3.80199" y1="4.86287" x2="198.878" y2="34.2304" gradientUnits="userSpaceOnUse">
<stop stop-color="#D80087"/>
<stop offset="0.902998" stop-color="#EFC939"/>
<stop offset="0.932083" stop-color="#ECAB45"/>
</linearGradient>
<linearGradient id="paint2_linear_61687:3277" x1="-3.80199" y1="4.86287" x2="198.878" y2="34.2304" gradientUnits="userSpaceOnUse">
<stop stop-color="#D80087"/>
<stop offset="0.902998" stop-color="#EFC939"/>
<stop offset="0.932083" stop-color="#ECAB45"/>
</linearGradient>
<linearGradient id="paint3_linear_61687:3277" x1="-3.80199" y1="4.86287" x2="198.878" y2="34.2304" gradientUnits="userSpaceOnUse">
<stop stop-color="#D80087"/>
<stop offset="0.902998" stop-color="#EFC939"/>
<stop offset="0.932083" stop-color="#ECAB45"/>
</linearGradient>
<linearGradient id="paint4_linear_61687:3277" x1="-3.80199" y1="4.86287" x2="198.878" y2="34.2304" gradientUnits="userSpaceOnUse">
<stop stop-color="#D80087"/>
<stop offset="0.902998" stop-color="#EFC939"/>
<stop offset="0.932083" stop-color="#ECAB45"/>
</linearGradient>
<linearGradient id="paint5_linear_61687:3277" x1="-3.80199" y1="4.86287" x2="198.878" y2="34.2304" gradientUnits="userSpaceOnUse">
<stop stop-color="#D80087"/>
<stop offset="0.902998" stop-color="#EFC939"/>
<stop offset="0.932083" stop-color="#ECAB45"/>
</linearGradient>
<linearGradient id="paint6_linear_61687:3277" x1="-3.80199" y1="4.86287" x2="198.878" y2="34.2304" gradientUnits="userSpaceOnUse">
<stop stop-color="#D80087"/>
<stop offset="0.902998" stop-color="#EFC939"/>
<stop offset="0.932083" stop-color="#ECAB45"/>
</linearGradient>
<linearGradient id="paint7_linear_61687:3277" x1="-3.80199" y1="4.86287" x2="198.878" y2="34.2304" gradientUnits="userSpaceOnUse">
<stop stop-color="#D80087"/>
<stop offset="0.902998" stop-color="#EFC939"/>
<stop offset="0.932083" stop-color="#ECAB45"/>
</linearGradient>
<linearGradient id="paint8_linear_61687:3277" x1="-3.80199" y1="4.86287" x2="198.878" y2="34.2304" gradientUnits="userSpaceOnUse">
<stop stop-color="#D80087"/>
<stop offset="0.902998" stop-color="#EFC939"/>
<stop offset="0.932083" stop-color="#ECAB45"/>
</linearGradient>
</defs>
</svg>
